<svg width="23" height="25" viewBox="0 0 23 25" fill="none" xmlns="http://www.w3.org/2000/svg">
<path fill-rule="evenodd" clip-rule="evenodd" d="M9.7616 18.4497C9.57214 17.6462 9.59664 16.8497 9.62479 16.0542C9.45717 16.2155 9.28403 16.3702 9.10257 16.515C8.62943 16.8941 8.0825 17.1759 7.53621 17.4573C7.20064 17.6302 6.86531 17.803 6.54749 17.9981C6.44888 18.0586 6.38168 18.1766 6.31321 18.2968C6.24432 18.4178 6.17416 18.541 6.06944 18.6101C6.0477 18.6244 6.02435 18.6401 5.99972 18.6566C5.82513 18.7738 5.58551 18.9347 5.38809 18.9685L5.3654 18.9722C5.2729 18.9872 5.17636 19.0028 5.14082 19.0843C4.95949 19.5088 2.17912 21.2015 1.30545 19.961C0.54772 18.9033 2.276 17.458 3.34768 16.5617C3.48836 16.4441 3.61772 16.3359 3.72866 16.2393C4.63639 15.4637 5.54413 14.6881 6.44585 13.9065C6.21468 13.8421 5.98468 13.7676 5.75519 13.6932L5.75517 13.6932C5.43458 13.5893 5.115 13.4857 4.79462 13.4105C4.69731 13.3888 4.58272 13.4272 4.46522 13.4665C4.34388 13.5071 4.21944 13.5487 4.10777 13.5263L4.05645 13.5171C3.87348 13.4847 3.60901 13.4378 3.45389 13.3223L3.44133 13.3125C3.37346 13.2598 3.30072 13.2032 3.22311 13.2396C2.84946 13.416 0.0471133 12.7875 0.239431 11.2823C0.408409 9.95076 2.51032 10.0852 3.73976 10.1638L3.73989 10.1638C3.86968 10.1721 3.98974 10.1798 4.09678 10.1851C4.88617 10.2287 5.67148 10.2703 6.45395 10.3073C6.37555 10.163 6.30012 10.0163 6.22475 9.86973C6.05231 9.53431 5.88016 9.19947 5.67325 8.89528C5.61714 8.81083 5.50518 8.76231 5.39147 8.71303C5.28245 8.66579 5.17183 8.61786 5.10728 8.5369C5.09377 8.51995 5.07902 8.50184 5.06345 8.48273C4.95234 8.34636 4.79966 8.15895 4.76111 7.98002C4.75987 7.97338 4.75866 7.96667 4.75744 7.95993C4.74253 7.87732 4.72701 7.79131 4.64572 7.77602C4.4589 7.71537 3.93139 7.18055 3.57423 6.5079C3.19509 5.86832 2.95881 5.06885 3.42587 4.47338C3.88744 3.89446 4.64022 4.04884 5.404 4.46787C5.76666 4.68841 6.13481 4.96961 6.4645 5.24529C6.66717 5.42452 6.85052 5.60376 7.0132 5.7628C7.11073 5.85815 7.20084 5.94623 7.28322 6.0227C7.99866 6.71282 8.67145 7.43148 9.32 8.15814C9.35023 7.70301 9.44982 7.24667 9.54935 6.79061C9.62781 6.43109 9.70624 6.07173 9.75062 5.71328C9.76439 5.60827 9.71328 5.49356 9.66094 5.3761C9.60886 5.2592 9.55557 5.13958 9.56379 5.02408C9.5664 4.99442 9.56873 4.96144 9.57123 4.9262C9.58449 4.73873 9.60229 4.48716 9.69017 4.32937C9.69591 4.31858 9.70192 4.30779 9.70793 4.297C9.74803 4.22509 9.78812 4.15317 9.74512 4.08126C9.53632 3.71736 9.79457 0.756565 11.3001 0.740024C12.6846 0.729695 12.7916 3.10399 12.8493 4.38352L12.8493 4.38363L12.8493 4.38385C12.8532 4.47029 12.8568 4.55173 12.8607 4.6271C12.9184 5.65753 12.9638 6.68796 12.9991 7.71839C13.2203 7.53212 13.4491 7.33242 13.6248 7.1584C14.6084 6.21007 15.6029 5.27276 16.8612 4.61112C16.8893 4.59741 16.9591 4.55035 17.0609 4.48173L17.061 4.48172C17.696 4.05361 19.5755 2.78671 20.3285 3.547C21.2461 4.47328 19.4273 6.82207 19.1141 7.04813C18.9186 7.19239 18.7144 7.3276 18.5103 7.46273C17.9344 7.84406 17.3594 8.22482 16.9821 8.80696C16.6811 9.26438 16.3256 9.66186 15.9464 10.0335C17.0738 9.92757 18.2036 9.82613 19.3888 10.0693C19.4169 10.0765 19.4975 10.0825 19.6153 10.0911L19.6153 10.0911L19.6154 10.0912C20.3057 10.1421 22.2734 10.2872 22.4329 11.3374C22.6308 12.6276 20.0867 13.3885 19.735 13.3719C19.5085 13.3659 19.2812 13.3466 19.0543 13.3272L19.0543 13.3272C18.4445 13.2753 17.8375 13.2236 17.2568 13.4326C16.4207 13.7437 15.5594 13.7735 14.6968 13.8033C14.6586 13.8047 14.6204 13.806 14.5822 13.8073C14.6217 13.8538 14.6704 13.9128 14.7258 13.9799C14.9422 14.2422 15.2599 14.6273 15.5199 14.861C15.661 14.996 15.802 15.1284 15.942 15.2599C16.6306 15.9068 17.2963 16.532 17.8442 17.3476C17.8609 17.3774 17.9271 17.4455 18.0233 17.5445C18.212 17.7388 18.5163 18.0521 18.7893 18.4283C19.2234 18.941 19.6191 19.6027 19.3608 20.1706C19.0916 20.7605 18.3058 20.8322 17.5091 20.6999C16.7508 20.5234 16.009 20.1595 15.8881 20.0217C15.7135 19.8495 15.5488 19.6674 15.3849 19.4862C15.2497 19.3367 15.1151 19.1879 14.9759 19.0458C14.6902 18.715 14.377 18.4172 13.9759 18.2187C13.7252 18.0833 13.4935 17.9279 13.2757 17.7586C13.2616 18.8955 13.1795 20.027 12.7837 21.1458C12.7763 21.1681 12.7636 21.2234 12.745 21.3039C12.5984 21.9399 12.0892 24.1482 10.9869 24.0845C9.69567 24.0129 9.42093 21.3057 9.48137 20.9639C9.51938 20.7491 9.5693 20.5347 9.6192 20.3204C9.76405 19.6984 9.90873 19.0771 9.7616 18.4497Z" fill="black"/>
</svg>
